<?xml version="1.0" encoding="iso-8859-1"?>
<!-- Uploaded to: SVG Repo, www.svgrepo.com, Generator: SVG Repo Mixer Tools -->
<svg height="800px" width="800px" version="1.1" id="Layer_1" xmlns="http://www.w3.org/2000/svg" xmlns:xlink="http://www.w3.org/1999/xlink" 
	 viewBox="0 0 512 512" xml:space="preserve">
<g>
	<path style="fill:#88E2E2;" d="M500.05,281.162h-98.565c-6.6,0-11.95-5.35-11.95-11.95v-29.455c0-6.6,5.35-11.95,11.95-11.95
		h98.565c6.6,0,11.95,5.35,11.95,11.95v29.455C512,275.812,506.65,281.162,500.05,281.162z"/>
	<path style="fill:#88E2E2;" d="M110.516,281.162H11.95c-6.6,0-11.95-5.35-11.95-11.95v-29.455c0-6.6,5.35-11.95,11.95-11.95h98.565
		c6.6,0,11.95,5.35,11.95,11.95v29.455C122.466,275.812,117.115,281.162,110.516,281.162z"/>
</g>
<g>
	<path style="fill:#F09EA0;" d="M229.901,231.931c0,0-48.068-30.893-66.856-41.491c-4.561-2.572-14.295-6.47-19.335-8.251
		l-0.011-0.006v0.003c-4.097-1.446-8.502-2.24-13.093-2.24c-21.732,0-39.348,17.618-39.348,39.348
		c0,16.733,10.449,31.017,25.176,36.707c-14.726,5.69-25.176,19.974-25.176,36.707c0,21.732,17.616,39.348,39.348,39.348
		c8.147,0,17.57-2.255,24.427-5.481c19.183-9.028,75.955-45.373,75.955-45.373"/>
	<path style="fill:#F09EA0;" d="M282.509,280.069c0,0,48.069,30.893,66.856,41.491c4.561,2.572,14.295,6.47,19.335,8.251
		l0.011,0.006v-0.003c4.097,1.446,8.501,2.24,13.093,2.24c21.732,0,39.348-17.618,39.348-39.348
		c0-16.733-10.449-31.017-25.176-36.707c14.726-5.69,25.176-19.974,25.176-36.707c0-21.732-17.616-39.348-39.348-39.348
		c-8.147,0-17.57,2.255-24.427,5.481c-19.183,9.028-75.955,45.373-75.955,45.373"/>
</g>
<g>
	<path style="fill:#EF8990;" d="M155.032,298.379c-6.857,3.226-16.279,5.481-24.427,5.481c-16.755,0-31.055-10.477-36.729-25.235
		c-1.679,4.373-2.619,9.114-2.619,14.08c0,21.732,17.616,39.348,39.348,39.348c8.147,0,17.57-2.255,24.427-5.481
		c19.183-9.028,75.955-45.373,75.955-45.373l-0.613-27.802C224.213,257.332,173.049,289.902,155.032,298.379z"/>
	<path style="fill:#EF8990;" d="M381.804,303.862c-4.592,0-8.996-0.794-13.093-2.241v0.003l-0.011-0.006
		c-5.04-1.78-14.774-5.679-19.335-8.251c-18.788-10.598-66.856-41.491-66.856-41.491v28.193c0,0,48.068,30.893,66.856,41.491
		c4.561,2.572,14.295,6.47,19.335,8.251l0.011,0.006v-0.003c4.097,1.446,8.502,2.24,13.093,2.24
		c21.732,0,39.348-17.618,39.348-39.348c0-4.966-0.939-9.705-2.619-14.08C412.859,293.383,398.559,303.862,381.804,303.862z"/>
</g>
<circle style="fill:#F9DE8F;" cx="255.997" cy="255.996" r="35.548"/>
<path style="fill:#F7CF6D;" d="M256.001,269.398c-15.764,0-29.124-10.266-33.779-24.473c-1.143,3.486-1.768,7.207-1.768,11.075
	c0,19.632,15.916,35.548,35.548,35.548c19.632,0,35.549-15.916,35.549-35.548c0-3.868-0.627-7.588-1.77-11.075
	C285.124,259.133,271.765,269.398,256.001,269.398z"/>
<circle style="fill:#EF8990;" cx="129.53" cy="217.905" r="15.944"/>
</svg>