<?xml version="1.0" encoding="iso-8859-1"?>
<!-- Uploaded to: SVG Repo, www.svgrepo.com, Generator: SVG Repo Mixer Tools -->
<svg height="800px" width="800px" version="1.1" id="Layer_1" xmlns="http://www.w3.org/2000/svg" xmlns:xlink="http://www.w3.org/1999/xlink" 
	 viewBox="0 0 512 512" xml:space="preserve">
<path style="fill:#F9DE8F;" d="M397.516,61.059H467.2c14.85,0,26.89,12.039,26.89,26.89v94.373H17.909V87.949
	c0-14.851,12.039-26.89,26.89-26.89h69.684H397.516z"/>
<path style="fill:#88E2E2;" d="M461.127,512H50.873c-18.206,0-32.963-14.758-32.963-32.963V182.321h476.181v296.716
	C494.09,497.242,479.332,512,461.127,512z"/>
<path style="fill:#F7CF6D;" d="M467.2,61.059h-54.275c14.85,0,26.889,12.039,26.889,26.89v94.373h54.275V87.949
	C494.09,73.097,482.051,61.059,467.2,61.059z"/>
<path style="fill:#67D1D3;" d="M439.815,182.32v296.716c0,18.206-14.758,32.963-32.963,32.963h54.275
	c18.206,0,32.963-14.758,32.963-32.963V182.32H439.815z"/>
<g>
	<path style="fill:#F09EA0;" d="M136.823,125.934L136.823,125.934c-12.338,0-22.34-10.002-22.34-22.34V22.34
		c0-12.338,10.002-22.34,22.34-22.34l0,0c12.338,0,22.34,10.002,22.34,22.34v81.255
		C159.162,115.931,149.161,125.934,136.823,125.934z"/>
	<path style="fill:#F09EA0;" d="M375.177,125.934L375.177,125.934c-12.338,0-22.34-10.002-22.34-22.34V22.34
		c0-12.338,10.002-22.34,22.34-22.34l0,0c12.338,0,22.34,10.002,22.34,22.34v81.255
		C397.516,115.931,387.515,125.934,375.177,125.934z"/>
	<path style="fill:#F09EA0;" d="M120.721,396.249v-91.318c0-4.798,3.714-8.513,8.513-8.513c4.798,0,8.667,3.714,8.667,8.513v37.147
		h40.088v-37.147c0-4.798,3.714-8.513,8.513-8.513s8.668,3.714,8.668,8.513v91.318c0,4.798-3.87,8.513-8.668,8.513
		c-4.798,0-8.513-3.714-8.513-8.513v-37.147H137.9v37.147c0,4.798-3.87,8.513-8.667,8.513
		C124.437,404.762,120.721,401.047,120.721,396.249z"/>
	<path style="fill:#F09EA0;" d="M230.462,396.249v-91.318c0-4.798,3.87-8.513,8.513-8.513c0.155,0,0.155,0,0.464,0c0,0,0,0,0.155,0
		h21.359c16.252,0,29.407,13.156,29.407,29.407c0,6.655-2.168,12.693-5.882,17.645c9.286,5.882,15.632,16.251,15.632,28.014
		c0,18.418-14.859,33.277-33.122,33.277h-27.395c-0.155,0-0.155-0.155-0.155-0.155c-0.309,0-0.309,0.155-0.464,0.155
		C234.331,404.762,230.462,400.892,230.462,396.249z M247.642,338.364h13.311c6.811,0,12.227-5.727,12.227-12.537
		c0-6.811-5.416-12.227-12.227-12.227h-13.311V338.364z M247.642,387.581h19.347c8.822-0.155,15.941-7.12,15.941-16.097
		c0-8.823-7.12-15.787-15.941-15.943h-19.347V387.581z"/>
	<path style="fill:#F09EA0;" d="M322.401,396.249v-91.318c0-4.798,3.714-8.513,8.513-8.513h18.263
		c29.872,0,54.017,24.3,54.017,54.017c0,30.027-24.145,54.327-54.017,54.327h-18.263
		C326.115,404.762,322.401,400.892,322.401,396.249z M339.581,387.581h9.596c20.43-0.155,36.836-16.561,36.836-37.147
		c0-20.275-16.406-36.836-36.836-36.836h-9.596V387.581z"/>
</g>
</svg>