<?xml version="1.0" encoding="iso-8859-1"?>
<!-- Uploaded to: SVG Repo, www.svgrepo.com, Generator: SVG Repo Mixer Tools -->
<svg version="1.1" id="Layer_1" xmlns="http://www.w3.org/2000/svg" xmlns:xlink="http://www.w3.org/1999/xlink" 
	 viewBox="0 0 512.001 512.001" xml:space="preserve">
<path style="fill:#E1E1E3;" d="M255.996,207.197c-5.037,0-9.121-5.781-9.121-12.913V142.79c0-7.131,4.084-12.913,9.121-12.913
	c5.037,0,9.121,5.781,9.121,12.913v51.495C265.116,201.415,261.033,207.197,255.996,207.197z"/>
<path style="fill:#88E2E2;" d="M304.585,512h-97.179c-9.892,0-17.911-8.019-17.911-17.911v-285.09
	c0-9.892,8.019-17.911,17.911-17.911h97.179c9.892,0,17.911,8.019,17.911,17.911v285.09C322.496,503.981,314.477,512,304.585,512z"
	/>
<path style="fill:#F9DE8F;" d="M311.787,88.605c0,30.812-24.979,55.791-55.791,55.791s-55.791-24.979-55.791-55.791
	c0-25.702,38.819-72.073,51.695-86.748c2.173-2.476,6.017-2.476,8.19,0C272.968,16.532,311.787,62.904,311.787,88.605z"/>
<path style="fill:#F7CF6D;" d="M290.487,109.905c0,19.049-15.442,34.491-34.491,34.491s-34.491-15.442-34.491-34.491
	c0-14.931,21.191-41.146,30.353-51.78c2.182-2.532,6.095-2.532,8.277,0C269.296,68.761,290.487,94.974,290.487,109.905z"/>
<path style="fill:#67D1D3;" d="M304.585,191.088h-31.011c9.892,0,17.911,8.019,17.911,17.911v285.09
	c0,9.892-8.019,17.912-17.911,17.912h31.011c9.892,0,17.911-8.019,17.911-17.912v-285.09
	C322.496,199.107,314.477,191.088,304.585,191.088z"/>
<g>
	<rect x="189.501" y="422.546" style="fill:#F09EA0;" width="133.005" height="43.986"/>
	<rect x="189.501" y="235.473" style="fill:#F09EA0;" width="133.005" height="43.986"/>
	<rect x="189.501" y="329.016" style="fill:#F09EA0;" width="133.005" height="43.986"/>
</g>
<g>
	<rect x="291.483" y="235.473" style="fill:#EF8990;" width="31.011" height="43.986"/>
	<rect x="291.483" y="329.016" style="fill:#EF8990;" width="31.011" height="43.986"/>
	<rect x="291.483" y="422.546" style="fill:#EF8990;" width="31.011" height="43.986"/>
</g>
</svg>