<?xml version="1.0" encoding="iso-8859-1"?>
<!-- Uploaded to: SVG Repo, www.svgrepo.com, Generator: SVG Repo Mixer Tools -->
<svg version="1.1" id="Layer_1" xmlns="http://www.w3.org/2000/svg" xmlns:xlink="http://www.w3.org/1999/xlink" 
	 viewBox="0 0 511.998 511.998" xml:space="preserve">
<path style="fill:#F09EA0;" d="M70.661,384.33c-1.879,0-3.779-0.528-5.469-1.635c-4.622-3.026-5.917-9.224-2.891-13.846
	c13.107-20.023,28.755-32.983,46.507-38.519c14.825-4.625,27.516-3.187,38.711-1.919c10.736,1.218,19.216,2.178,27.234-2.503
	c7.819-4.566,15.953-19.702,19.547-32.444c1.5-5.316,7.026-8.407,12.342-6.91c5.316,1.5,8.411,7.025,6.912,12.341
	c-5.05,17.898-16.268,37.018-28.713,44.286c-13.75,8.031-26.874,6.546-39.573,5.107c-10.131-1.147-19.7-2.231-30.504,1.139
	c-13.207,4.119-25.228,14.341-35.727,30.381C77.12,382.736,73.922,384.33,70.661,384.33z"/>
<path style="fill:#F9DE8F;" d="M263.189,361.597l-107.18-107.18c-2.779-2.779-2.779-7.285,0-10.066L371.208,29.155L483.42,141.367
	L263.189,361.597z"/>
<rect x="203.914" y="218.49" transform="matrix(-0.7071 0.7071 -0.7071 -0.7071 782.1024 151.682)" style="fill:#F7CF6D;" width="311.447" height="38.66"/>
<polygon style="fill:#FFEC97;" points="168.801,267.207 263.189,361.597 263.189,361.597 "/>
<path style="fill:#D9D9DB;" d="M263.189,361.597l-26.915-26.915L92.022,478.934c-7.432,7.432-7.432,19.483,0,26.915l0,0
	c7.432,7.432,19.483,7.432,26.915,0L263.189,361.597z"/>
<rect x="225.002" y="339.208" transform="matrix(-0.7071 0.7071 -0.7071 -0.7071 662.3668 442.1187)" style="fill:#C8C6CD;" width="29.231" height="38.063"/>
<g>
	<polygon style="fill:#F09EA0;" points="481.584,143.202 297.805,102.557 249.187,151.176 432.965,191.821 	"/>
	<path style="fill:#F09EA0;" d="M201.03,199.333l183.779,40.645l-48.157,48.157l-180.194-39.853
		c-1.552-0.343-2.112-2.266-0.989-3.39L201.03,199.333z"/>
</g>
<path style="fill:#88E2E2;" d="M483.42,141.367L371.208,29.155l137.48-28.521c1.939-0.403,3.654,1.314,3.251,3.251L483.42,141.367z"
	/>
<g>
	<polygon style="fill:#EF8990;" points="436.81,133.301 388.193,181.919 432.965,191.821 481.584,143.202 	"/>
	<polygon style="fill:#EF8990;" points="340.035,230.076 291.878,278.233 336.651,288.136 384.808,239.979 	"/>
</g>
<path style="fill:#67D1D3;" d="M456.082,114.03l27.338,27.338L511.95,3.835c0.127-0.612-0.721-0.905-0.999-0.345L456.082,114.03z"/>
<path style="fill:#F7CF6D;" d="M37.827,432.132c-1.928,0-3.877-0.556-5.594-1.719c-4.575-3.095-5.776-9.312-2.68-13.889
	l15.265-22.565c3.094-4.575,9.312-5.774,13.888-2.679c4.575,3.095,5.776,9.312,2.68,13.889l-15.266,22.565
	C44.186,430.591,41.035,432.132,37.827,432.132z"/>
<g>
	<path style="fill:#F9DE8F;" d="M85.721,437.816c-4.697,0-8.887-3.325-9.81-8.108l-5.162-26.75
		c-1.047-5.424,2.502-10.668,7.925-11.717c5.428-1.043,10.668,2.502,11.715,7.925l5.162,26.75
		c1.047,5.423-2.502,10.668-7.925,11.717C86.986,437.756,86.348,437.816,85.721,437.816z"/>
	<path style="fill:#F9DE8F;" d="M9.99,388.239c-4.887,0-9.163-3.587-9.886-8.568c-0.792-5.466,2.998-10.54,8.464-11.332
		l26.962-3.909c5.468-0.793,10.54,2.996,11.334,8.464c0.792,5.466-2.998,10.54-8.464,11.332l-26.962,3.909
		C10.95,388.204,10.468,388.239,9.99,388.239z"/>
</g>
</svg>