<?xml version="1.0" encoding="iso-8859-1"?>
<!-- Uploaded to: SVG Repo, www.svgrepo.com, Generator: SVG Repo Mixer Tools -->
<svg height="800px" width="800px" version="1.1" id="Layer_1" xmlns="http://www.w3.org/2000/svg" xmlns:xlink="http://www.w3.org/1999/xlink" 
	 viewBox="0 0 512 512" xml:space="preserve">
<path style="fill:#B9BDE6;" d="M454.587,181.904l-27.794,134.54c-1.813,8.774-12.563,12.135-19.051,5.957l-33.384-31.797
	l-41.267,15.919c-8.428,3.251-17.114-4.112-15.287-12.959l27.041-130.891L454.587,181.904z"/>
<circle style="fill:#88E2E2;" cx="435.432" cy="84.354" r="20.389"/>
<circle style="fill:#F09EA0;" cx="331.564" cy="71.971" r="8.012"/>
<g>
	<circle style="fill:#F7CF6D;" cx="158.886" cy="252.122" r="8.012"/>
	<circle style="fill:#F7CF6D;" cx="53.598" cy="313.034" r="8.012"/>
</g>
<g>
	<path style="fill:#F9DE8F;" d="M351.494,305.294l96.689,104.847c4.777,5.179,13.431,2.245,14.072-4.772l13.716-150.26
		L351.494,305.294z"/>
	<path style="fill:#F9DE8F;" d="M195.784,114.484l11.307,148.167c0.555,7.069,9.264,10.088,14.076,4.88l103.853-112.409
		L195.784,114.484z"/>
</g>
<path style="fill:#B9BDE6;" d="M67.291,361.36l91.345,119.321c4.055,5.297,12.412,3.725,14.265-2.684l39.964-138.242L67.291,361.36z
	"/>
<g>
	<path style="fill:#F09EA0;" d="M176.709,106.505l-56.269,125.33c-3.669,8.173-14.894,9.126-19.889,1.69l-25.706-38.271
		l-43.735,6.605c-8.933,1.349-15.817-7.721-12.117-15.962L73.733,63.965L176.709,106.505z"/>
	<path style="fill:#F09EA0;" d="M337.033,307.666l31.213,133.789c2.036,8.725-6.313,16.286-14.794,13.399l-43.644-14.857
		l-30.782,31.762c-6.286,6.487-17.26,3.447-19.313-5.35l-30.366-130.16L337.033,307.666z"/>
</g>
<g>
	<path style="fill:#EF8990;" d="M87.939,131.042c-3.904,0-7.323-2.861-7.91-6.839c-0.645-4.375,2.378-8.444,6.752-9.089
		l37.362-5.511c4.376-0.642,8.444,2.378,9.09,6.753c0.645,4.375-2.378,8.444-6.752,9.089l-37.362,5.511
		C88.722,131.014,88.328,131.042,87.939,131.042z"/>
	<path style="fill:#EF8990;" d="M74.873,163.668c-3.904,0-7.323-2.861-7.91-6.839c-0.645-4.375,2.378-8.444,6.752-9.089
		l37.362-5.511c4.372-0.645,8.444,2.378,9.09,6.753c0.645,4.375-2.378,8.444-6.752,9.089l-37.362,5.511
		C75.656,163.64,75.262,163.668,74.873,163.668z"/>
	<path style="fill:#EF8990;" d="M278.472,384.227c-1.743,0-3.498-0.567-4.969-1.735c-3.465-2.748-4.046-7.783-1.298-11.248
		l23.468-29.59c2.747-3.464,7.785-4.047,11.247-1.297c3.465,2.748,4.046,7.783,1.298,11.248l-23.468,29.59
		C283.169,383.189,280.832,384.227,278.472,384.227z"/>
	<path style="fill:#EF8990;" d="M291.277,416.957c-1.743,0-3.498-0.567-4.969-1.734c-3.465-2.748-4.046-7.784-1.298-11.248
		l23.468-29.59c2.748-3.465,7.784-4.047,11.247-1.297c3.465,2.748,4.046,7.783,1.298,11.248l-23.468,29.59
		C295.974,415.918,293.637,416.957,291.277,416.957z"/>
</g>
<g>
	<path style="fill:#88E2E2;" d="M478.106,190.04c-17.02,0-34.023-3.028-51.326-6.44C292,157.023,132.023,101.928,19.222,43.238
		c-3.923-2.041-5.449-6.875-3.406-10.798c2.04-3.924,6.875-5.449,10.798-3.406c111.563,58.045,269.854,112.549,403.266,138.855
		c20.517,4.046,39.013,7.272,57.584,5.772c4.441-0.35,8.27,2.929,8.625,7.336c0.357,4.407-2.928,8.269-7.335,8.625
		C485.203,189.908,481.653,190.04,478.106,190.04z"/>
	<path style="fill:#88E2E2;" d="M7.999,369.621c-4.223,0-7.756-3.305-7.987-7.573c-0.239-4.415,3.146-8.189,7.561-8.428
		c62.465-3.389,136.695-13.964,214.668-30.581c74.148-15.802,146.56-35.878,209.407-58.056c18.676-6.591,52.125-20.395,67.73-31.407
		c3.612-2.549,8.607-1.688,11.158,1.925c2.549,3.612,1.688,8.608-1.926,11.157c-18.256,12.885-54.84,27.498-71.633,33.424
		C302.164,327.658,133.954,362.799,8.44,369.609C8.293,369.616,8.144,369.621,7.999,369.621z"/>
</g>
</svg>