<?xml version="1.0" encoding="iso-8859-1"?>
<!-- Uploaded to: SVG Repo, www.svgrepo.com, Generator: SVG Repo Mixer Tools -->
<svg version="1.1" id="Layer_1" xmlns="http://www.w3.org/2000/svg" xmlns:xlink="http://www.w3.org/1999/xlink" 
	 viewBox="0 0 512 512" xml:space="preserve">
<g>
	<path style="fill:#F9DE8F;" d="M127.119,368.3l-15.076,35.726c-8.348,19.782-31.151,29.05-50.931,20.703l-20.153-8.504
		l15.076-35.726c8.348-19.782,31.151-29.05,50.931-20.703L127.119,368.3z"/>
	<path style="fill:#F9DE8F;" d="M142.195,332.574L127.119,368.3l-20.153-8.504c-19.782-8.348-29.05-31.151-20.703-50.931
		l15.076-35.726l20.153,8.504C141.272,289.99,150.542,312.792,142.195,332.574z"/>
</g>
<path style="fill:#88E2E2;" d="M109.05,509.552l-19.806-8.358c-8.524-3.597-12.517-13.423-8.921-21.947l93.635-221.892
	c3.597-8.524,13.423-12.517,21.947-8.921l19.806,8.358c3.204,1.352,4.706,5.045,3.353,8.25L117.3,506.198
	C115.948,509.403,112.254,510.904,109.05,509.552z"/>
<path style="fill:#67D1D3;" d="M195.906,248.435c-5.824-2.458-12.253-1.367-16.891,2.286c11.026,5.799,15.968,19.166,11.035,30.854
	L96.145,504.106l12.905,5.446c3.204,1.352,6.898-0.15,8.25-3.353l101.765-241.155c1.352-3.205-0.15-6.898-3.353-8.25
	L195.906,248.435z"/>
<path style="fill:#F9DE8F;" d="M312.686,5.184l19.102,7.001c0.418,0.153,0.884,0.09,1.247-0.167l16.597-11.766
	c0.914-0.648,2.174,0.034,2.132,1.153l-0.755,20.33c-0.016,0.444,0.187,0.869,0.544,1.134l16.319,12.147
	c0.899,0.669,0.64,2.077-0.437,2.385l-19.568,5.564c-0.428,0.122-0.769,0.447-0.911,0.868l-6.51,19.275
	c-0.358,1.061-1.778,1.25-2.402,0.321l-11.339-16.891c-0.248-0.369-0.661-0.593-1.107-0.598l-20.343-0.235
	c-1.12-0.013-1.739-1.305-1.047-2.186l12.561-16.004c0.275-0.35,0.36-0.813,0.227-1.238l-6.063-19.42
	C310.598,5.787,311.636,4.799,312.686,5.184z"/>
<circle style="fill:#F09EA0;" cx="252.33" cy="92.222" r="22.154"/>
<circle style="fill:#88E2E2;" cx="389.102" cy="118.017" r="22.154"/>
<path style="fill:#F09EA0;" d="M464.677,300.693v193.664c0,9.744-7.899,17.643-17.643,17.643H225.638
	c-9.744,0-17.643-7.899-17.643-17.643V300.693c0-2.083,1.689-3.773,3.773-3.773h249.137
	C462.988,296.92,464.677,298.61,464.677,300.693z"/>
<path style="fill:#EF8990;" d="M433.98,296.92v197.437c0,9.744-7.899,17.643-17.643,17.643h30.696
	c9.744,0,17.643-7.899,17.643-17.643V300.693c0-2.083-1.689-3.773-3.773-3.773H433.98z"/>
<g>
	<rect x="310.73" y="296.916" style="fill:#F9DE8F;" width="51.208" height="215.075"/>
	<path style="fill:#F9DE8F;" d="M331.188,269.421c-0.271,0-0.546-0.014-0.821-0.038c-4.783-0.449-8.298-4.689-7.851-9.473
		c2.548-27.202,2.709-54.791,0.48-82.002c-2.015-24.582-6.015-49.208-11.886-73.191c-1.141-4.665,1.715-9.375,6.382-10.518
		c4.667-1.141,9.375,1.715,10.518,6.382c6.089,24.871,10.237,50.412,12.326,75.907c2.313,28.221,2.146,56.834-0.496,85.044
		C339.417,266.04,335.626,269.421,331.188,269.421z"/>
	<path style="fill:#F9DE8F;" d="M305.629,269.959c-4.437,0-8.227-3.38-8.65-7.886c-1.436-15.277-6.567-38.093-22.86-60.038
		c-21.604-29.105-50.631-40.266-66.011-44.329c-4.645-1.227-7.417-5.987-6.189-10.631c1.227-4.645,5.986-7.42,10.631-6.189
		c17.581,4.644,50.772,17.417,75.539,50.778c18.686,25.172,24.567,51.298,26.211,68.78c0.45,4.783-3.063,9.025-7.847,9.475
		C306.176,269.946,305.902,269.959,305.629,269.959z"/>
	<path style="fill:#F9DE8F;" d="M357.307,268.898c-0.346,0-0.694-0.021-1.043-0.063c-4.771-0.571-8.176-4.9-7.606-9.67
		c1.848-15.461,8.757-45.18,34.268-70.502c29.453-29.231,65.09-33.779,79.044-34.377c4.813-0.234,8.858,3.517,9.063,8.319
		c0.206,4.801-3.518,8.858-8.319,9.063c-11.932,0.51-42.398,4.395-67.535,29.344c-21.771,21.607-27.669,47.003-29.249,60.217
		C365.404,265.65,361.649,268.898,357.307,268.898z"/>
</g>
</svg>