<?xml version="1.0" encoding="iso-8859-1"?>
<!-- Uploaded to: SVG Repo, www.svgrepo.com, Generator: SVG Repo Mixer Tools -->
<svg height="800px" width="800px" version="1.1" id="Layer_1" xmlns="http://www.w3.org/2000/svg" xmlns:xlink="http://www.w3.org/1999/xlink" 
	 viewBox="0 0 512.001 512.001" xml:space="preserve">
<path style="fill:#F9DE8F;" d="M293.013,512H23.789l113.622-276.905L154.71,226c0.798-0.374,1.725-0.353,2.505,0.057l16.89,9.038
	L293.013,512"/>
<path style="fill:#F7CF6D;" d="M174.104,235.095l-16.89-9.038c-0.78-0.41-1.707-0.431-2.505-0.057l-16.756,8.81l0.533,0.285
	l10.182,23.711c19.391,45.157,18.611,96.439-2.147,140.985l-52.287,112.21h163.16h35.618L174.104,235.095z"/>
<circle style="fill:#F09EA0;" cx="155.759" cy="211.372" r="30.589"/>
<path style="fill:#EF8990;" d="M169.012,183.795c1.931,4.009,3.013,8.506,3.013,13.255c0,16.894-13.695,30.589-30.589,30.589
	c-4.749,0-9.244-1.082-13.254-3.013c4.939,10.256,15.43,17.334,27.576,17.334c16.894,0,30.589-13.695,30.589-30.589
	C186.346,199.226,179.268,188.734,169.012,183.795z"/>
<g>
	<circle style="fill:#B9BDE6;" cx="149.36" cy="331.786" r="18.684"/>
	<circle style="fill:#B9BDE6;" cx="165.685" cy="431.945" r="18.684"/>
</g>
<path style="fill:#4B5BE5;" d="M336.588,142.481l-22.539-12.06c-1.041-0.547-2.278-0.576-3.342-0.076L429.947,512h58.264
	L336.588,142.481z"/>
<path style="fill:#88E2E2;" d="M135.998,512l151.623-369.519l23.084-12.136c1.065-0.5,2.302-0.471,3.342,0.076l22.539,12.06
	L488.21,512H135.998z"/>
<path style="fill:#67D1D3;" d="M336.588,142.481l-22.539-12.06c-1.041-0.547-2.278-0.576-3.342-0.076L429.947,512h58.264
	L336.588,142.481z"/>
<path style="fill:#F9DE8F;" d="M315.121,1.874l22.411,45.411c0.49,0.993,1.438,1.681,2.532,1.84l50.114,7.282
	c2.759,0.401,3.861,3.792,1.864,5.738L355.78,97.493c-0.793,0.773-1.155,1.887-0.968,2.978l8.56,49.912
	c0.471,2.749-2.414,4.844-4.881,3.546l-44.823-23.565c-0.98-0.515-2.151-0.515-3.131,0l-44.823,23.565
	c-2.468,1.298-5.352-0.798-4.881-3.546l8.56-49.912c0.188-1.091-0.175-2.205-0.968-2.978l-36.263-35.348
	c-1.997-1.946-0.895-5.337,1.864-5.738l50.114-7.282c1.096-0.159,2.043-0.848,2.532-1.84l22.411-45.411
	C310.322-0.625,313.888-0.625,315.121,1.874z"/>
<path style="fill:#F7CF6D;" d="M392.045,62.147c1.997-1.946,0.895-5.337-1.864-5.738l-23.551-3.422l-18.08,17.622
	c-5.47,5.332-7.965,13.014-6.675,20.542l0,0c3.252,18.959-16.648,33.416-33.674,24.465l0,0c-6.762-3.555-14.839-3.555-21.599,0
	l-21.768,11.444l-4,23.323c-0.471,2.749,2.414,4.844,4.881,3.546l44.823-23.565c0.98-0.515,2.151-0.515,3.131,0l44.823,23.565
	c2.468,1.298,5.352-0.798,4.881-3.546l-8.56-49.912c-0.188-1.091,0.175-2.205,0.968-2.978L392.045,62.147z"/>
<path style="fill:#B9BDE6;" d="M58.32,427.902c13.65,5.543,20.221,21.103,14.677,34.752c-5.543,13.65-21.311,20.164-34.961,14.62
	L58.32,427.902z"/>
<g>
	<polygon style="fill:#F09EA0;" points="370.749,225.734 287.621,142.481 264.664,198.516 425.629,359.48 	"/>
	<polygon style="fill:#F09EA0;" points="211.864,327.12 393.989,512 488.211,512 239.034,260.891 	"/>
	<polygon style="fill:#F09EA0;" points="209.284,512 157.321,460.036 183.302,397.087 298.214,512 	"/>
</g>
<g>
	<polygon style="fill:#EF8990;" points="326.729,181.648 362.597,296.449 425.619,359.471 370.739,225.725 	"/>
	<polygon style="fill:#EF8990;" points="429.947,512 488.21,512 488.21,512 403.171,426.301 	"/>
</g>
</svg>