<?xml version="1.0" encoding="iso-8859-1"?>
<!-- Uploaded to: SVG Repo, www.svgrepo.com, Generator: SVG Repo Mixer Tools -->
<svg version="1.1" id="Layer_1" xmlns="http://www.w3.org/2000/svg" xmlns:xlink="http://www.w3.org/1999/xlink" 
	 viewBox="0 0 512.001 512.001" xml:space="preserve">
<path style="fill:#EDA156;" d="M349.475,200.264H162.526c-10.464,0-18.947,8.483-18.947,18.947v3.22
	c0,10.464,8.483,18.947,18.947,18.947h-1.484v46.979c0,18.102,14.675,32.777,32.777,32.777h-2.567l57.277,186.021
	c1.989,6.46,11.133,6.46,13.123,0l57.277-186.021h-2.567c18.102,0,32.777-14.675,32.777-32.777v-46.979h0.336
	c10.464,0,18.947-8.483,18.947-18.947v-3.22C368.422,208.747,359.939,200.264,349.475,200.264z"/>
<g>
	<rect x="161.043" y="241.385" style="fill:#DD8E40;" width="188.093" height="19.652"/>
	<path style="fill:#DD8E40;" d="M318.893,321.25c0.017-0.057-0.025-0.116-0.086-0.116H293.32H191.372
		c-0.06,0-0.103,0.058-0.086,0.116l8.212,26.669c0.011,0.037,0.046,0.063,0.086,0.063h29.852c30.659,0,53.806,27.807,48.247,57.957
		l-18.612,100.936c-0.292,1.581,2.006,2.146,2.48,0.608L318.893,321.25z"/>
</g>
<path style="fill:#F9DE8F;" d="M200.45,97.323c-5.073-9.338-7.955-20.04-7.955-31.416c0-36.4,29.509-65.908,65.908-65.908
	s65.908,29.507,65.908,65.908c0,11.374-2.881,22.077-7.955,31.416c0,0-43.465,19.927-57.953,19.927
	C243.914,117.25,200.45,97.323,200.45,97.323z"/>
<path style="fill:#F7CF6D;" d="M258.403,0c-4.506,0-8.906,0.455-13.158,1.316c30.094,6.097,52.75,32.697,52.75,64.591
	c0,11.374-2.882,22.076-7.955,31.416c0,0-26.292,12.052-44.795,17.41c5.286,1.53,9.939,2.517,13.158,2.517
	c14.488,0,57.953-19.927,57.953-19.927c5.073-9.339,7.955-20.04,7.955-31.416C324.311,29.507,294.803,0,258.403,0z"/>
<path style="fill:#88E2E2;" d="M160.033,200.264c-9.525-11.428-13.299-24.135-13.299-40.176c0-36.4,29.507-65.908,65.908-65.908
	c16.171,0,30.984,5.825,42.452,15.49l-0.002-0.002c11.468-9.664,26.278-15.488,42.448-15.488c36.4,0,65.908,29.507,65.908,65.908
	c0,15.122-5.093,29.054-13.657,40.176"/>
<g>
	<path style="fill:#67D1D3;" d="M297.539,94.182c-3.318,0-6.575,0.259-9.762,0.731c31.743,4.741,56.091,32.113,56.091,65.176
		c0,15.122-5.093,29.054-13.657,40.176h19.579c8.564-11.122,13.657-25.053,13.657-40.176
		C363.447,123.69,333.938,94.182,297.539,94.182z"/>
	<path style="fill:#67D1D3;" d="M212.643,94.182c-3.318,0-6.575,0.259-9.762,0.731c31.743,4.741,56.091,32.113,56.091,65.176
		c0,15.122-5.093,29.054-13.657,40.176h19.579c8.564-11.122,13.657-25.053,13.657-40.176
		C278.551,123.69,249.042,94.182,212.643,94.182z"/>
</g>
</svg>