<?xml version="1.0" encoding="iso-8859-1"?>
<!-- Uploaded to: SVG Repo, www.svgrepo.com, Generator: SVG Repo Mixer Tools -->
<svg height="800px" width="800px" version="1.1" id="Layer_1" xmlns="http://www.w3.org/2000/svg" xmlns:xlink="http://www.w3.org/1999/xlink" 
	 viewBox="0 0 512 512" xml:space="preserve">
<path style="fill:#88E2E2;" d="M9.426,511.994c-2.412,0-4.825-0.92-6.665-2.761c-3.681-3.681-3.681-9.65,0-13.33L186.69,311.974
	c3.681-3.681,9.65-3.681,13.33,0c3.681,3.681,3.681,9.65,0,13.33L16.091,509.232C14.251,511.074,11.839,511.994,9.426,511.994z"/>
<circle style="fill:#F09EA0;" cx="325.341" cy="186.657" r="186.651"/>
<path style="fill:#EF8990;" d="M457.329,54.664c-4.561-4.561-9.301-8.837-14.195-12.827c59.781,73.314,55.505,181.446-12.827,249.78
	c-68.334,68.334-176.466,72.609-249.78,12.827c3.99,4.894,8.266,9.632,12.827,14.195c72.895,72.895,191.08,72.895,263.975,0
	S530.224,127.559,457.329,54.664z"/>
<circle style="fill:#F9DE8F;" cx="325.341" cy="186.657" r="111.417"/>
<path style="fill:#F7E7BF;" d="M404.123,107.872c-3.436-3.436-7.057-6.569-10.804-9.463c33.743,43.695,30.61,106.683-9.463,146.757
	c-40.073,40.073-103.061,43.206-146.757,9.463c2.893,3.747,6.026,7.368,9.463,10.804c43.509,43.509,114.052,43.509,157.56,0
	C447.631,221.922,447.631,151.381,404.123,107.872z"/>
<circle style="fill:#F09EA0;" cx="325.341" cy="186.657" r="41.352"/>
</svg>