<?xml version="1.0" encoding="iso-8859-1"?>
<!-- Uploaded to: SVG Repo, www.svgrepo.com, Generator: SVG Repo Mixer Tools -->
<svg version="1.1" id="Layer_1" xmlns="http://www.w3.org/2000/svg" xmlns:xlink="http://www.w3.org/1999/xlink" 
	 viewBox="0 0 512 512" xml:space="preserve">
<rect x="247.491" style="fill:#F4F4F4;" width="18.221" height="137.545"/>
<path style="fill:#D9D9DB;" d="M304.936,0c0,27.532-22.318,49.85-49.85,49.85S205.235,27.532,205.235,0H304.936z"/>
<circle style="fill:#EE569F;" cx="255.083" cy="261.157" r="139.088"/>
<path style="fill:#EFB6BB;" d="M164.448,288.255c2.38,18.138,7.101,35.008,13.672,49.867c14.86,6.57,31.729,11.292,49.867,13.672
	c-3.522-15.943-6.132-35.026-7.513-56.026C199.473,294.387,180.391,291.778,164.448,288.255z"/>
<g>
	<path style="fill:#F09EA0;" d="M332.051,184.191c6.571,14.86,11.292,31.729,13.672,49.867c29.661,6.552,48.45,16.262,48.45,27.098
		C394.173,229.036,369.494,200.748,332.051,184.191z"/>
	<path style="fill:#F09EA0;" d="M255.085,296.884c-11.949,0-23.546-0.388-34.612-1.115c1.381,21,3.992,40.083,7.513,56.026
		c8.766,1.15,17.825,1.759,27.098,1.759c9.273,0,18.333-0.609,27.098-1.759c3.522-15.943,6.132-35.026,7.513-56.026
		C278.632,296.497,267.035,296.884,255.085,296.884z"/>
</g>
<path style="fill:#EFB6BB;" d="M332.051,184.191c37.443,16.557,62.122,44.844,62.122,76.966
	c0-76.816-62.271-139.088-139.088-139.088C287.207,122.069,315.494,146.748,332.051,184.191z"/>
<path style="fill:#F09EA0;" d="M345.723,288.255c-2.38,18.138-7.101,35.008-13.672,49.867
	c37.443-16.557,62.122-44.844,62.122-76.966C394.173,271.994,375.384,281.704,345.723,288.255z"/>
<g>
	<path style="fill:#EFB6BB;" d="M345.723,234.058c1.15,8.766,1.759,17.825,1.759,27.098s-0.609,18.333-1.759,27.098
		c29.661-6.552,48.45-16.262,48.45-27.098C394.173,250.32,375.384,240.611,345.723,234.058z"/>
	<path style="fill:#EFB6BB;" d="M289.697,295.768c-1.381,21-3.992,40.083-7.513,56.026c18.138-2.38,35.008-7.101,49.867-13.672
		c6.571-14.86,11.292-31.729,13.672-49.867C329.78,291.778,310.697,294.387,289.697,295.768z"/>
</g>
<g>
	<path style="fill:#F09EA0;" d="M290.813,261.157c0,11.949-0.388,23.546-1.115,34.612c21-1.381,40.083-3.992,56.026-7.513
		c1.15-8.766,1.759-17.825,1.759-27.098s-0.609-18.333-1.759-27.098c-15.943-3.522-35.026-6.132-56.026-7.513
		C290.426,237.611,290.813,249.207,290.813,261.157z"/>
	<path style="fill:#F09EA0;" d="M219.359,261.157c0-11.949,0.387-23.546,1.115-34.612c-21,1.381-40.083,3.992-56.026,7.513
		c-1.15,8.766-1.759,17.825-1.759,27.098s0.609,18.333,1.759,27.098c15.943,3.522,35.026,6.132,56.026,7.513
		C219.746,284.703,219.359,273.106,219.359,261.157z"/>
</g>
<g>
	<path style="fill:#EFB6BB;" d="M289.697,226.545c-11.066-0.728-22.662-1.115-34.612-1.115c-11.949,0-23.546,0.387-34.612,1.115
		c-0.728,11.066-1.115,22.662-1.115,34.612c0,11.949,0.387,23.547,1.115,34.612c11.066,0.728,22.662,1.115,34.612,1.115
		c11.949,0,23.546-0.388,34.612-1.115c0.728-11.066,1.115-22.662,1.115-34.612C290.812,249.207,290.426,237.611,289.697,226.545z"/>
	<path style="fill:#EFB6BB;" d="M345.723,234.058c-2.38-18.138-7.101-35.008-13.672-49.867
		c-14.86-6.571-31.729-11.292-49.867-13.672c3.522,15.943,6.132,35.026,7.513,56.026
		C310.697,227.926,329.78,230.537,345.723,234.058z"/>
</g>
<path style="fill:#EF8990;" d="M227.987,170.52c-18.138,2.38-35.008,7.101-49.867,13.672c-6.571,14.86-11.292,31.729-13.672,49.867
	c15.943-3.522,35.026-6.132,56.026-7.513C221.855,205.546,224.465,186.462,227.987,170.52z"/>
<g>
	<path style="fill:#F09EA0;" d="M255.085,225.43c11.949,0,23.546,0.387,34.612,1.115c-1.381-21-3.992-40.083-7.513-56.026
		c-8.766-1.15-17.825-1.759-27.098-1.759c-9.273,0-18.333,0.609-27.098,1.759c-3.522,15.943-6.132,35.026-7.513,56.026
		C231.54,225.817,243.136,225.43,255.085,225.43z"/>
	<path style="fill:#F09EA0;" d="M164.448,234.058c2.38-18.138,7.101-35.008,13.672-49.867
		c-37.443,16.557-62.122,44.844-62.122,76.966C115.998,250.32,134.786,240.611,164.448,234.058z"/>
	<path style="fill:#F09EA0;" d="M332.051,338.122c-14.86,6.57-31.729,11.292-49.867,13.672c-6.552,29.661-16.262,48.45-27.098,48.45
		C287.207,400.244,315.494,375.567,332.051,338.122z"/>
</g>
<g>
	<path style="fill:#EFB6BB;" d="M282.184,351.794c-8.766,1.15-17.825,1.759-27.098,1.759c-9.273,0-18.333-0.609-27.098-1.759
		c6.552,29.661,16.262,48.45,27.098,48.45S275.633,381.456,282.184,351.794z"/>
	<path style="fill:#EFB6BB;" d="M178.119,338.122c-37.443-16.557-62.122-44.844-62.122-76.966
		c0,76.816,62.271,139.087,139.088,139.087C222.965,400.244,194.676,375.567,178.119,338.122z"/>
</g>
<path style="fill:#F09EA0;" d="M227.987,351.794c-18.138-2.38-35.008-7.101-49.867-13.672
	c16.557,37.443,44.845,62.122,76.966,62.122C244.249,400.244,234.539,381.456,227.987,351.794z"/>
<path style="fill:#EFB6BB;" d="M332.051,338.122c-16.557,37.443-44.844,62.122-76.966,62.122
	c76.816,0,139.088-62.271,139.088-139.088C394.173,293.278,369.494,321.566,332.051,338.122z"/>
<path style="fill:#F09EA0;" d="M282.184,170.52c18.138,2.38,35.008,7.101,49.867,13.672c-16.557-37.443-44.844-62.122-76.966-62.122
	C265.923,122.069,275.633,140.857,282.184,170.52z"/>
<path style="fill:#EF8990;" d="M227.987,170.52c8.766-1.15,17.825-1.759,27.098-1.759c9.273,0,18.333,0.609,27.098,1.759
	c-6.552-29.661-16.262-48.45-27.098-48.45S234.539,140.857,227.987,170.52z"/>
<path style="fill:#F09EA0;" d="M178.119,184.191c14.86-6.571,31.729-11.292,49.867-13.672c6.552-29.661,16.262-48.45,27.098-48.45
	C222.965,122.069,194.676,146.748,178.119,184.191z"/>
<g>
	<path style="fill:#EF8990;" d="M164.448,288.255c-1.15-8.766-1.759-17.825-1.759-27.098s0.609-18.333,1.759-27.098
		c-29.661,6.552-48.45,16.262-48.45,27.098C115.998,271.993,134.786,281.704,164.448,288.255z"/>
	<path style="fill:#EF8990;" d="M178.119,184.191c16.557-37.443,44.845-62.122,76.966-62.122
		c-76.816,0-139.088,62.271-139.088,139.088C115.998,229.036,140.676,200.748,178.119,184.191z"/>
</g>
<path style="fill:#F09EA0;" d="M178.119,338.122c-6.571-14.86-11.292-31.729-13.672-49.867c-29.661-6.552-48.45-16.262-48.45-27.098
	C115.998,293.278,140.676,321.566,178.119,338.122z"/>
<g>
	<path style="fill:#F9DE8F;" d="M255.085,512c-5.031,0-9.111-4.078-9.111-9.111V428.79c0-5.033,4.079-9.111,9.111-9.111
		c5.031,0,9.111,4.078,9.111,9.111v74.099C264.196,507.922,260.117,512,255.085,512z"/>
	<path style="fill:#F9DE8F;" d="M500.466,269.66h-74.099c-5.031,0-9.111-4.078-9.111-9.111c0-5.033,4.079-9.111,9.111-9.111h74.099
		c5.031,0,9.111,4.078,9.111,9.111C509.577,265.582,505.498,269.66,500.466,269.66z"/>
	<path style="fill:#F9DE8F;" d="M85.633,269.66H11.534c-5.031,0-9.111-4.078-9.111-9.111c0-5.033,4.079-9.111,9.111-9.111h74.099
		c5.031,0,9.111,4.078,9.111,9.111C94.744,265.582,90.664,269.66,85.633,269.66z"/>
	<path style="fill:#F9DE8F;" d="M438.327,444.399c-2.331,0-4.663-0.889-6.442-2.668l-52.397-52.397
		c-3.558-3.559-3.558-9.327,0-12.885c3.558-3.557,9.327-3.557,12.883,0l52.397,52.397c3.558,3.559,3.558,9.327,0,12.885
		C442.991,443.509,440.658,444.399,438.327,444.399z"/>
	<path style="fill:#F9DE8F;" d="M71.844,439.981c-2.331,0-4.663-0.889-6.442-2.668c-3.558-3.559-3.558-9.327,0-12.885l52.397-52.397
		c3.558-3.557,9.327-3.557,12.884,0c3.558,3.559,3.558,9.327,0,12.885l-52.397,52.397C76.507,439.091,74.176,439.981,71.844,439.981
		z"/>
</g>
</svg>