<?xml version="1.0" encoding="iso-8859-1"?>
<!-- Uploaded to: SVG Repo, www.svgrepo.com, Generator: SVG Repo Mixer Tools -->
<svg height="800px" width="800px" version="1.1" id="Layer_1" xmlns="http://www.w3.org/2000/svg" xmlns:xlink="http://www.w3.org/1999/xlink" 
	 viewBox="0 0 512 512" xml:space="preserve">
<path style="fill:#88E2E2;" d="M372.731,512H139.268c-20.516,0-37.147-16.631-37.147-37.147V37.147
	C102.121,16.631,118.752,0,139.268,0h233.464c20.516,0,37.147,16.631,37.147,37.147v437.705
	C409.878,495.369,393.247,512,372.731,512z"/>
<path style="fill:#EFEFEF;" d="M388.717,435.01H123.281c-2.241,0-4.058-1.817-4.058-4.058V52.692c0-2.241,1.817-4.058,4.058-4.058
	h265.436c2.241,0,4.058,1.817,4.058,4.058v378.261C392.775,433.193,390.958,435.01,388.717,435.01z"/>
<g>
	<path style="fill:#59D3C4;" d="M291.849,31.107h-71.7c-3.759,0-6.807-3.048-6.807-6.807l0,0c0-3.759,3.048-6.807,6.807-6.807h71.7
		c3.759,0,6.807,3.048,6.807,6.807l0,0C298.657,28.059,295.609,31.107,291.849,31.107z"/>
	<circle style="fill:#59D3C4;" cx="255.994" cy="473.223" r="23.484"/>
</g>
<path style="fill:#F9DE8F;" d="M345.104,240.438H168.753c-13.118,0-23.752,10.635-23.752,23.752v90.605
	c0,1.443,1.17,2.612,2.613,2.612h218.633c1.443,0,2.613-1.17,2.613-2.612V264.19C368.858,251.073,358.223,240.438,345.104,240.438z"
	/>
<path style="fill:#F7CF6D;" d="M345.063,240.438h-33.079c13.141,0,23.795,10.653,23.795,23.795v93.176h33.079v-93.176
	C368.858,251.091,358.205,240.438,345.063,240.438z"/>
<path style="fill:#F09EA0;" d="M144.999,264.232v38.829c2.142,1.121,4.467,1.808,7.075,1.815
	c15.554,0.044,21.52-23.794,37.666-23.932c15.752-0.134,21.651,22.455,37.919,22.442c16.121-0.015,22.795-22.211,37.678-21.775
	c14.583,0.427,18.175,22.041,32.765,22.47c14.986,0.44,22.196-22.048,37.678-21.775c15.226,0.268,18.255,23.249,33.08,23.488V263.99
	c-0.133-13.027-10.724-23.549-23.783-23.549H168.793C155.652,240.438,144.999,251.091,144.999,264.232z"/>
<path style="fill:#EF8990;" d="M345.063,240.438h-33.079c13.142,0,23.795,10.653,23.795,23.795v18.071
	c15.225,0.27,18.253,23.249,33.079,23.488v-41.559C368.858,250.493,357.615,240.438,345.063,240.438z"/>
<path style="fill:#E1E1E3;" d="M256.928,190.644c-3.654,0-6.616-2.962-6.616-6.616v-26.383c0-3.654,2.962-6.616,6.616-6.616
	c3.654,0,6.616,2.962,6.616,6.616v26.383C263.544,187.682,260.582,190.644,256.928,190.644z"/>
<path style="fill:#C8C6CD;" d="M272.339,240.438h-30.822v-64.717c0-1.785,1.446-3.231,3.231-3.231h24.359
	c1.785,0,3.231,1.446,3.231,3.231v64.717H272.339z"/>
<path style="fill:#F7CF6D;" d="M269.857,147.401c0,7.141-5.789,12.929-12.929,12.929c-7.141,0-12.929-5.789-12.929-12.929
	c0-7.141,12.929-21.165,12.929-21.165S269.857,140.26,269.857,147.401z"/>
</svg>