<?xml version="1.0" encoding="iso-8859-1"?>
<!-- Uploaded to: SVG Repo, www.svgrepo.com, Generator: SVG Repo Mixer Tools -->
<svg version="1.1" id="Layer_1" xmlns="http://www.w3.org/2000/svg" xmlns:xlink="http://www.w3.org/1999/xlink" 
	 viewBox="0 0 512 512" xml:space="preserve">
<path style="fill:#F4F4F4;" d="M120.108,260.222V57.074c0-14.434,11.701-26.135,26.135-26.135h216.493
	c14.434,0,26.135,11.701,26.135,26.135v203.147H120.108z"/>
<path style="fill:#C8C6CD;" d="M388.872,260.222V134.09L285.593,94.115c-15.464-5.985-32.852,1.699-38.838,17.163l-57.65,148.945
	L388.872,260.222z"/>
<rect x="157.919" y="68.915" style="fill:#F09EA0;" width="193.178" height="137.925"/>
<path style="fill:#EF8990;" d="M351.095,206.839v-87.372l-65.502-25.354c-15.464-5.985-32.852,1.699-38.838,17.163l-36.989,95.562
	H351.095z"/>
<path style="fill:#F4F4F4;" d="M172.072,359.624l87.515-226.102c5.211-13.461,20.346-20.15,33.807-14.94l201.897,78.147
	c13.461,5.211,20.15,20.346,14.94,33.807L432.081,432.44c-5.209,13.458-20.34,20.148-33.8,14.942l-226.001-87.401L172.072,359.624z"
	/>
<polyline style="fill:#F9DE8F;" points="253.66,253.961 290.771,158.081 470.922,227.809 415.402,371.251 318.241,333.643 "/>
<g>
	<circle style="fill:#F7CF6D;" cx="327.767" cy="225.242" r="22.876"/>
	<circle style="fill:#F7CF6D;" cx="396.73" cy="254.1" r="22.876"/>
</g>
<path style="fill:#F9DE8F;" d="M291.905,481.059H23.939C10.718,481.059,0,470.342,0,457.121V278.043
	c0-13.221,10.718-23.939,23.939-23.939h267.968c13.221,0,23.939,10.718,23.939,23.939v179.079
	C315.844,470.342,305.126,481.059,291.905,481.059z"/>
<path style="fill:#F7CF6D;" d="M291.905,254.104h-21.219c13.221,0,23.939,10.718,23.939,23.939v179.079
	c0,13.221-10.718,23.938-23.939,23.938h21.219c13.221,0,23.939-10.718,23.939-23.938V278.043
	C315.844,264.822,305.126,254.104,291.905,254.104z"/>
<path style="fill:#F9DE8F;" d="M203.781,288.888h-91.717c-13.221,0-23.939-10.718-23.939-23.939v-20.191
	c0-13.221,10.718-23.939,23.939-23.939h91.717c13.221,0,23.939,10.718,23.939,23.939v20.191
	C227.718,278.17,217.001,288.888,203.781,288.888z"/>
<path style="fill:#F7CF6D;" d="M203.781,220.819h-20.63c13.221,0,23.939,10.718,23.939,23.938v20.191
	c0,13.221-10.717,23.939-23.939,23.939h20.63c13.221,0,23.939-10.718,23.939-23.939v-20.191
	C227.718,231.537,217.001,220.819,203.781,220.819z"/>
<path style="fill:#88E2E2;" d="M65.753,288.888H36.666c-5.438,0-9.846-4.409-9.846-9.846v-28.184c0-5.438,4.409-9.846,9.846-9.846
	h29.087c5.438,0,9.846,4.409,9.846,9.846v28.184C75.598,284.479,71.191,288.888,65.753,288.888z"/>
<g>
	<path style="fill:#F09EA0;" d="M315.844,288.888H0v-10.845c0-13.221,10.718-23.939,23.939-23.939h267.968
		c13.221,0,23.939,10.718,23.939,23.939v10.845H315.844z"/>
	<path style="fill:#F09EA0;" d="M0,446.276h315.844v10.845c0,13.221-10.718,23.939-23.939,23.939H23.939
		C10.718,481.059,0,470.342,0,457.121V446.276z"/>
</g>
<g>
	<path style="fill:#EF8990;" d="M310.378,262.815c-4.39-5.32-11.035-8.712-18.471-8.712h-21.219
		c13.221,0,23.939,10.718,23.939,23.939v10.845h21.219v-10.845C315.844,272.258,313.792,266.953,310.378,262.815z"/>
	<path style="fill:#EF8990;" d="M294.625,457.121c0,13.221-10.718,23.938-23.939,23.938h21.219c10.742,0,19.832-7.075,22.863-16.82
		c0.699-2.249,1.076-4.64,1.076-7.119v-10.845h-21.219V457.121z"/>
</g>
<circle style="fill:#F4F4F4;" cx="157.919" cy="358.24" r="82.323"/>
<circle style="fill:#59D3C4;" cx="157.919" cy="358.24" r="61.3"/>
<circle style="fill:#88E2E2;" cx="157.919" cy="358.24" r="40.116"/>
<circle style="fill:#F4F4F4;" cx="267.163" cy="289.678" r="15.718"/>
</svg>