<?xml version="1.0" encoding="iso-8859-1"?>
<!-- Uploaded to: SVG Repo, www.svgrepo.com, Generator: SVG Repo Mixer Tools -->
<svg height="800px" width="800px" version="1.1" id="Layer_1" xmlns="http://www.w3.org/2000/svg" xmlns:xlink="http://www.w3.org/1999/xlink" 
	 viewBox="0 0 512 512" xml:space="preserve">
<path style="fill:#B9BDE6;" d="M413.195,512H98.805c-14.127,0-25.316-11.933-24.408-26.03l22.775-353.538
	c0.356-5.526,4.941-9.825,10.479-9.825h296.272c5.533,0,10.116,4.292,10.478,9.813l23.201,353.522
	C438.527,500.048,427.333,512,413.195,512z"/>
<path style="fill:#ABB0E0;" d="M437.601,485.941L414.4,132.419c-0.362-5.52-4.946-9.813-10.478-9.813h-33.613l23.845,363.334
	C395.08,500.047,383.886,512,369.748,512h43.447C427.333,512,438.527,500.048,437.601,485.941z"/>
<g>
	<polygon style="fill:#88E2E2;" points="372.217,505.97 91.211,224.965 91.211,224.965 85.507,313.512 85.978,313.983 283.995,512 
		378.246,512 	"/>
	<path style="fill:#88E2E2;" d="M85.181,407.065l-5.344-5.295l-5.424,84.2C73.505,500.067,84.694,512,98.821,512h91.296
		L85.181,407.065z"/>
	<path style="fill:#88E2E2;" d="M333.906,175.619c-4.822,0-8.728-3.908-8.728-8.728V86.619c0-38.136-31.025-69.162-69.162-69.162
		s-69.162,31.026-69.162,69.162v80.272c0,4.82-3.907,8.728-8.728,8.728c-4.822,0-8.728-3.908-8.728-8.728V86.619
		C169.397,38.858,208.254,0,256.015,0s86.619,38.858,86.619,86.619v80.272C342.634,171.711,338.728,175.619,333.906,175.619z"/>
</g>
</svg>