<?xml version="1.0" encoding="iso-8859-1"?>
<!-- Uploaded to: SVG Repo, www.svgrepo.com, Generator: SVG Repo Mixer Tools -->
<svg height="800px" width="800px" version="1.1" id="Layer_1" xmlns="http://www.w3.org/2000/svg" xmlns:xlink="http://www.w3.org/1999/xlink" 
	 viewBox="0 0 512 512" xml:space="preserve">
<g>
	<path style="fill:#B9BDE6;" d="M305.42,480.223c-4.217,9.445-18.401,5.835-17.586-4.477
		c5.247-66.404,16.461-175.572,37.489-252.677c24.715-90.62,51.237-160.451,62.213-187.977c2.833-7.106,10.853-10.599,17.993-7.851
		l91.285,35.135c16.941,6.52,20.556,28.889,6.531,40.414l-86.076,70.732l60.966,23.473c16.654,6.412,20.507,28.227,7.056,39.953
		c-29.509,25.725-61.891,58.278-93.306,98.755C352.339,386.783,324.736,436.952,305.42,480.223z"/>
	<path style="fill:#B9BDE6;" d="M206.58,480.223c4.217,9.445,18.401,5.835,17.586-4.477
		c-5.247-66.404-16.461-175.572-37.489-252.677c-24.715-90.62-51.237-160.451-62.213-187.977
		c-2.833-7.106-10.853-10.599-17.993-7.851L15.187,62.375c-16.941,6.519-20.556,28.888-6.531,40.413l86.076,70.732l-60.966,23.473
		c-16.654,6.412-20.507,28.227-7.056,39.953c29.509,25.725,61.891,58.278,93.306,98.755
		C159.662,386.783,187.264,436.952,206.58,480.223z"/>
</g>
<g>
	<path style="fill:#ABB0E0;" d="M478.233,196.992l-10.925-4.207c-24.416,22.807-50.179,50.118-75.326,82.519
		c-52.443,67.573-83.81,133.545-102.802,184.065c-0.486,5.694-0.935,11.161-1.346,16.366c-0.815,10.315,13.367,13.932,17.586,4.482
		c19.316-43.27,46.918-93.438,86.562-144.518c31.415-40.478,63.798-73.031,93.306-98.755
		C498.74,225.219,494.887,203.405,478.233,196.992z"/>
	<path style="fill:#ABB0E0;" d="M120.017,275.305c-25.147-32.401-50.91-59.712-75.326-82.519l-10.925,4.207
		c-16.654,6.411-20.507,28.227-7.056,39.953c29.509,25.725,61.891,58.277,93.306,98.755
		c39.643,51.079,67.246,101.249,86.562,144.517c4.217,9.448,18.401,5.832,17.586-4.482c-0.411-5.205-0.859-10.672-1.346-16.366
		C203.827,408.849,172.461,342.877,120.017,275.305z"/>
</g>
<g>
	<path style="fill:#F09EA0;" d="M256,63.182l66.815-35.588c6.405-3.411,14.137,1.23,14.137,8.487v56.028
		c0,7.346-7.904,11.979-14.315,8.39L256,63.182z"/>
	<path style="fill:#F09EA0;" d="M256,63.102l-66.815-35.588c-6.405-3.411-14.137,1.23-14.137,8.487v56.028
		c0,7.346,7.904,11.979,14.315,8.39L256,63.102z"/>
</g>
</svg>